<svg id="Layer_1" data-name="Layer 1" xmlns="http://www.w3.org/2000/svg" viewBox="0 0 1464.57 1677.34"><defs><style>.cls-1{fill:#fff;}</style></defs><title>white</title><path class="cls-1" d="M594.73,1392.2c-15.06-.67-29.14-.54-41.66,9.89C407.79,1164.14,311.43,909.82,281.6,631.37c130-34.21,260.78-61.16,394-78.26-.71-7-1.28-13.77-2.1-20.5-5.18-42.17-12.22-84-22.91-125.15-14.48-55.75-34.94-109.08-64.32-158.8-7.36-12.46-6.56-26.23,2-36.5,8.75-10.49,22.57-14.45,35.9-8.76,16.74,7.15,33,15.5,49.47,23.16,68.63,31.83,139.87,55.81,214.18,70.32a775.28,775.28,0,0,0,115.47,13.73c109.23,4.68,213.79-14.72,312.69-61.71,25.77-12.24,50.42-26.91,75.19-41.15,12.45-7.16,24.5-9.15,36.73-1.09,12.7,8.37,16.31,21.23,13.28,35.31-6.14,28.56-12.94,57-20,85.33-18.15,73-35.13,146.18-48.53,220.19-.62,3.44-1.09,6.92-1.72,11,126.37,17.4,251.1,42.29,375.21,72.78-1,12.86-1.62,25.53-3.08,38.1-3,25.58-5.36,51.28-9.83,76.6-7.35,41.6-14.81,83.26-24.61,124.32-30.11,126.15-76.12,246.57-134.26,362.4a1788.7,1788.7,0,0,1-95.78,167.64c-.89,1.38-1.88,2.69-3,4.31-11.06-10.43-24.25-13.57-39.89-12.37,72.24-110.64,131.62-226.69,177.47-349.55s77.39-249,90-380.18c-111.92-26.53-224.47-48.3-338.93-64l-6,42.93c19.35,2.9,38,5.57,56.64,8.53,23.27,3.7,46.49,7.71,69.76,11.37a19.2,19.2,0,0,0,8.68-.77c21.39-7.06,42.09-6.54,61.89,5.1,2,1.18,4.29,2.3,5.72,4,6.59,8,15.86,9.58,25.24,11.48,22.26,4.53,44.44,9.45,66.64,14.23a19.82,19.82,0,0,1,2.86,1.2c-1.61,11.64-3.06,23.38-4.87,35.07a1432.73,1432.73,0,0,1-39,176.48,1659,1659,0,0,1-100.62,262.67,1737.87,1737.87,0,0,1-125,217.26c-1.7,2.52-3.27,4-6.7,4q-93-.18-186-.09h-4c.7-7.36,1.12-14.31,2.07-21.18,3.25-23.67,6.32-47.37,10.25-70.92,1.33-8,4.49-15.75,7.71-23.24,9-21,25.8-31.72,48-34.62,19.59-2.56,39.08-1.06,58.53,1.64,1.48.21,3,.28,5.1.48-2.81-8.57-7.44-15.56-12.71-22.12-13.64-17-31.08-29.33-49.71-40.14a7.51,7.51,0,0,0-4.73-.68c-28.72,5.18-57.51,5.35-86.44,1.88-24.61-3-48.36-8.7-70.29-20.53-42.78-23.07-68.49-58.71-77.61-106.4-1.51-7.87-3-15.75-5.17-23.78-.93,5.26-1.82,10.53-2.79,15.78-6.36,34.39-20.18,65-45.58,89.72-21.09,20.53-46.75,32.53-74.84,39.84-34,8.83-68.37,9.92-103.07,5.48-2.05-.26-4.58-.35-6.26.6-18.42,10.41-36.18,21.76-50.07,38.11-4.55,5.36-8.39,11.18-10.06,18.7,8.58-.6,16.68-1.76,24.76-1.58,12.67.28,25.55.25,37.94,2.52,22.84,4.19,36.61,19.37,44.25,40.74,6.63,18.56,9.46,37.9,12,57.3,1.88,14.6,3.29,29.25,4.86,43.88.28,2.63.32,5.29.5,8.54h-5.74q-94.24,0-188.48.08c-3.61,0-5.62-1.08-7.61-4.13A1847.26,1847.26,0,0,1,439.83,964.78,1624.23,1624.23,0,0,1,381.5,738.43c-2.62-14.44-4.8-29-7.25-43.85,19.36-4.48,38.32-9.12,57.39-13.21,27.92-6,55.93-11.55,83.88-17.43a24,24,0,0,0,7.22-3.21c17.12-10.41,34.94-15.12,55.05-9.38,5.17,1.48,11.48-.77,17.22-1.6q40.44-5.87,80.85-11.92c1.81-.27,3.59-.69,6-1.15l-2.55-43.21c-119.42,15.27-236.66,38.84-353.68,68.35C360.05,925.53,454.6,1166.71,594.73,1392.2ZM613.38,231.66l-.84.81c.51,1,1,2,1.54,3C657.36,309.49,682,390,695.8,474c4.86,29.5,8.35,59.27,11.31,89,2.7,27.11,4.63,54.36,5.46,81.59,1,32.3.52,64.65.43,97,0,4.15,1.36,6.24,4.93,8a506.84,506.84,0,0,0,87,33.14c49.59,14,100.23,21.55,151.55,25.35a1117.74,1117.74,0,0,0,123.93,2.14,781.06,781.06,0,0,0,124.93-14.5,627.53,627.53,0,0,0,111.3-32.94c2.92-1.18,4.26-2.78,4.26-5.86q0-6.27.34-12.55,2-36.28,4-72.56c.39-7.17.21-14.41,1.18-21.49,3.7-27,7.47-54,11.74-80.88,9-56.77,20.75-113,34.05-168.91,11.71-49.22,23.93-98.32,35.82-147.5,1.61-6.66,2.63-13.47,4.17-21.47-2.69,1.39-3.85,1.94-5,2.57-23.06,12.85-45.64,26.65-69.26,38.38-76.46,38-157.6,59.6-242.55,66.91A737.78,737.78,0,0,1,995,340.8a797.75,797.75,0,0,1-111.44-13.59C802.43,311.53,724.86,285,650.31,249.46,638,243.59,625.69,237.6,613.38,231.66ZM1034,947.57a1017.87,1017.87,0,0,0,107.91-6.87,811.25,811.25,0,0,0,118.92-23.26c85.46-23.75,164.6-60.37,234.38-115.83,19.31-15.34,37.45-32,52.87-51.33,7.76-9.75,11.27-20.62,9.33-33.2-2.48-16-15.57-29.65-31.44-31.55-10.34-1.23-20.53,0-29.51,5.7-11.58,7.33-23.09,14.83-34.23,22.8-39.44,28.19-80.8,53-125.56,71.88-88.83,37.52-182.13,52.15-277.83,54.11A1062.31,1062.31,0,0,1,914,833.25,768.2,768.2,0,0,1,801.34,812c-72.77-19.76-138.4-52.9-194.86-103.44-10.08-9-20.75-17.43-31.46-25.71-6.91-5.34-14.85-6.15-23.31-3.59-18.77,5.68-28.86,19.2-33.55,37.29-4.16,16-1.79,30.36,10.48,43a512,512,0,0,0,55.09,49.8c55.78,43,117.59,74.52,184.11,97.13C852.61,935.26,940,947.2,1034,947.57Zm-367.13,27.5c0,5-.21,9.89,0,14.71,1.06,20.69.86,41.55,6,61.8,10.34,40.46,33,71.26,71.52,89.1,18.16,8.4,37.57,11.56,57.33,13.26,29.59,2.54,58.79.94,87.47-7.37,37.92-11,66.25-33.07,82.24-69.93,9-20.7,11.79-42.76,14.77-64.74,2.62-19.34,19.57-31.29,37.06-24.83,11.75,4.34,16.78,14.44,19.27,25.77,2.79,12.71,4.78,25.59,7.24,38.37q11.46,59.5,65.8,86.39c29.23,14.49,60.79,17.75,92.7,17.61a246.11,246.11,0,0,0,44.75-4.77c49.59-9.47,82.7-38.6,99.21-86.25,8.57-24.73,11.34-50.38,10.31-76.49-.16-4.14,0-8.29,0-12.5l21-3.45c0-14.63,0-28.52,0-42.41,0-3.76-1.86-5.83-5.14-7.11-4.67-1.81-9.32-3.66-13.94-5.62-3.89-1.65-7.44-1.26-11.49.16-27.26,9.51-54.61,18.75-82,28-5.08,1.71-10.31,2.95-15.47,4.4,7.68,1.72,15.37,2,22.76,3.64A300.17,300.17,0,0,1,1310,961.6c5.77,2,9.38,6.69,10,13.26,2.4,24.32,1.59,48.37-5,72.1-7.87,28.43-23.33,50.45-51.31,62.25-32.91,13.88-66.63,17.36-101.44,8.32-27-7-49-21-63.93-45.05-8.63-13.93-12.68-29.45-14-45.61-1.35-17.18-4.21-34.43-.13-52a963.57,963.57,0,0,1-140.75-2.24c1.33,5.29,3,9.88,3.54,14.6s.24,9.7.11,14.56c-.09,3.17-.68,6.32-.78,9.48a141,141,0,0,1-13.18,56.2c-11.11,23.63-31.16,37-54.58,46.07-39.8,15.35-78.79,10.75-117-5.94-23.54-10.29-38.45-28.54-45.66-52.92a195,195,0,0,1-5.64-27.95c-2.3-16.21-4.85-32.43-2.71-48.95,1.25-9.68,6.16-16.62,15.21-19.25a307.06,307.06,0,0,1,38.44-8.76c12.27-1.9,24.81-2.08,37.27-3a5.66,5.66,0,0,0-1.44-.87,725.49,725.49,0,0,1-99-35.34,8.65,8.65,0,0,0-5.24-.61c-13,3.41-26,6.91-39,10.68-4.09,1.19-8,3.62-8.11,8.48-.24,14-.09,28.09-.09,42.37ZM1115,1019.92c-.11,29.41,14.43,51.9,40.68,63.1,33.33,14.22,66.55,11.73,99.11-3.27,9.83-4.53,17.91-11.3,22.95-21,11.6-22.26,14.63-46,10.9-70.63-.19-1.26-2.13-3-3.49-3.24q-12.31-2.3-24.74-3.88a9.85,9.85,0,0,0-5.66,1.27c-29.65,16.71-61.8,26-95.08,31.65C1144.92,1016.47,1130,1018,1115,1019.92Zm-200.36.41c-11.47-1.44-22.61-2.56-33.65-4.26-37.4-5.79-73.42-15.84-106.37-35.18a9.56,9.56,0,0,0-5.59-1.3c-7,.87-13.83,2.34-20.79,3.16-3.65.43-5,2.29-5,5.53-.06,15.85-1,31.78.16,47.54,1.34,17.54,9.44,32.58,25.41,40.91,29.3,15.27,60.39,21.15,92.56,10.41C896,1075.58,910,1060.35,914.68,1020.33Z" transform="translate(-281.6 -200.79)"/><path class="cls-1" d="M1012.57,1412.34h429.17c14.49,0,24.26,7.48,26.82,20.6a31.43,31.43,0,0,1,.39,6q0,89.45,0,178.91c0,15.76-9,23-24.5,20.81-37.23-5.37-74.42-11.09-111.78-15.33-44.52-5.05-89.16-9.23-133.83-12.79-30.67-2.45-61.46-3.81-92.22-4.57-43.51-1.06-87.05-2-130.56-1.34-45.65.74-91.3,3-136.9,5.55-34.56,1.94-69.12,4.61-103.52,8.36-43.7,4.76-87.24,10.9-130.84,16.54-8.78,1.14-17.49,2.79-26.26,4.06-11.37,1.64-20.14-5.06-21.6-16.4a43.15,43.15,0,0,1-.46-5.49q0-88.7,0-177.4c0-13.35,6-22.66,17.06-26a39.38,39.38,0,0,1,11.36-1.39Q798.74,1412.29,1012.57,1412.34ZM572.3,1451.07c-.35,3.27-.72,5.75-.86,8.24-.58,10.47-.72,10.85,8.93,15,5.71,2.47,7.46,6,7.39,11.94-.27,22.44-.11,44.89-.11,67.33,0,13.3,0,13.3-12.05,18.42a8.66,8.66,0,0,0-2.27,1c-.69.59-1.62,1.5-1.59,2.23.27,6.43.73,12.84,1.18,19.83,12.07-1.44,23.52-2.66,34.93-4.19,20.72-2.78,41.2-6.65,60.88-14,34.88-13,52-38.08,51.23-74.84-.55-24.67-11.65-40.85-34.3-48.15a108.78,108.78,0,0,0-27.92-5.39c-17.17-.8-34.42-.41-51.63.05C595,1448.88,583.82,1450.19,572.3,1451.07Zm215.23,118.57a72,72,0,0,0,18.75-.07c9.13-1.24,18.76-2.45,28-5.07,27.46-7.81,47.09-24,50-54.5,2.62-27.92-7.84-50.31-37.84-59.15a122.37,122.37,0,0,0-53.65-3.17c-17.19,2.64-32.44,9.51-43.34,23.71-14.32,18.66-15.77,39.91-11.19,62a43.36,43.36,0,0,0,30.65,33A133.42,133.42,0,0,0,787.53,1569.64Zm416.33-25.83-15.83,2.9c.27,5.33.29,10,.88,14.62.16,1.25,2,3.16,3.15,3.27,9.82.94,19.68,1.38,29.51,2.24,20.65,1.8,41.29,3.75,61.94,5.67,9.09.84,18.16,1.77,27.81,2.72l3.07-37.53c-10.56-4.17-19.43-3.81-26.46,5.37-4.09,5.34-9.61,6.71-16.32,5.88-8.87-1.1-17.85-1.31-26.81-1.91V1519.1l45.84,6.62v-27.83h-46.14v-27.61c2.77,0,5.1-.08,7.43,0,7.52.29,15.75-1.13,22.35,1.49,6.42,2.55,11.12,9.35,16.69,14.15a7,7,0,0,0,3.91,1.69c4.62.21,9.25.08,14.63.08-.51-11.72-1.19-22.54-1.36-33.37-.07-4.46-1.29-5.94-6-5.92-36.16.14-72.33,0-108.5-.08h-5.88a31.94,31.94,0,0,1-.29,5.29c-2.14,8.69,1.84,13.45,9.91,15.46,5.28,1.32,6.4,4.83,6.36,9.76-.13,17.08.06,34.15.12,51.23C1203.87,1534.6,1203.86,1539.09,1203.86,1543.81Zm-227.23-97.53c-16.6-.14-32.77,2-47.4,10.42-22.18,12.72-30.52,32.52-28.39,57.43,1.92,22.4,12.48,36.49,34,42.61,25.86,7.34,51.92,6.83,77.35-2.17,17.29-6.12,30.29-17.46,34.73-35.91,1.91-7.94,2.13-16.55,1.61-24.76-1.12-17.52-9.92-30.56-25.66-38.54C1008.37,1448,992.61,1446.47,976.63,1446.28Zm375,114.56c.28,5.63.68,10.61.73,15.6,0,3.14,1.22,4.16,4.4,4.57,15.74,2,31.44,4.36,47.15,6.61,7.86,1.12,15.71,2.29,23.55,3.43,2.34-16.39,2.34-16.39-10.56-25.26-.69-.47-1.62-.81-2-1.46-1.54-2.55-3.92-5.12-4.14-7.84a161.11,161.11,0,0,1-.1-22.08,17.93,17.93,0,0,1,3-9c10.46-14.53,21.32-28.77,31.87-43.24,3.18-4.36,6.25-8.57,11.44-10.82a4.86,4.86,0,0,0,2.44-3.68c-.24-6-.92-12-1.47-18.3h-55.73c-.41,4.42-.58,8.75-1.29,13-.58,3.47,0,5.7,3.7,6.85a89.59,89.59,0,0,1,8.28,3.55c2.89,1.24,3.86,3.48,2.25,6.05-6,9.59-12.22,19-18.69,29.05l-22.71-36.11c4-.93,7.5-1.46,10.75-2.62,1.23-.44,2.81-2.41,2.73-3.59-.35-5.43-1.22-10.84-2-17-20.87,0-41.27,0-61.67,0-.92,0-2.63.54-2.64.83,0,4.84-1.67,10.93.62,14.32,12,17.69,24.53,35.05,37.78,51.82,8.91,11.29,13.06,23.28,11.08,37.45a5.36,5.36,0,0,0,0,1.5c.45,3-1,4.1-3.9,4.37C1361.75,1559.34,1357,1560.13,1351.66,1560.84Zm-292.45-112.27c-.13,1.71-.13,2.86-.32,4-1.33,8.25.18,14.55,9.92,16.22,3.57.61,4.09,3.93,4.09,7.15,0,19.75,0,39.5.14,59.25,0,3.09-1.22,4.12-3.9,4.53-3.28.5-6.53,1.15-10.13,1.79l1.16,16.84c.72.33,1,.58,1.32.6q54.86,2.25,109.73,4.36a3.77,3.77,0,0,0,2.84-2.32c1.11-11.27,2-22.56,2.93-34.09-9.74-1.61-18.66-3.8-25.79,4.94-2.28,2.8-5.56,4.8-8.46,7.06-1,.78-2.25,1.74-3.4,1.76-8.63.15-17.25.08-25.38.08a14.14,14.14,0,0,1-.8-2.3c0-22.09-.13-44.19,0-66.28,0-1.27,1.92-3.24,3.31-3.66,4.08-1.22,8.34-1.81,12.89-2.73l-1.38-17.19Z" transform="translate(-281.6 -200.79)"/><path class="cls-1" d="M769.19,1635.59c156.72-13.8,312.9-15.09,469.82-1.67-1.52,8.47-2.89,16.46-4.39,24.44-4.56,24.3-9.33,48.56-13.62,72.9-.77,4.36-2.31,5.32-6.41,5.32q-129.91-.16-259.82-.08c-52.27,0-104.53-.08-156.8.13-5.13,0-7-1.26-8.16-6.47-6.52-30.37-13.52-60.63-20.33-90.94A30.11,30.11,0,0,1,769.19,1635.59Zm112.52,75.77c.75-5.1,2.54-10.24-4.29-12.59-.83-.29-1.57-2.15-1.58-3.28-.11-13.55-.07-27.11-.07-40.74l6.58-2.15-.62-10.85H848.28c-.72,5.33-2.08,10.31,4.63,12.68,1.28.45,2.5,2.7,2.71,4.26.42,3.08.12,6.27.12,10.05H831.59v-13.95c8.86-3.21,9.11-3.74,6.26-13.16H803.44c.94,4.12.62,9.46,2.8,10.84,4.2,2.66,5,5.75,5,9.88,0,9.38-.18,18.77.07,28.14.14,5.17.52,10-6.54,9.86v11h33.53c2.25-5.78,1.3-10-4.78-12.17a4.05,4.05,0,0,1-2-3c-.23-4.29-.1-8.6-.1-12.74h24.15c0,5.32.64,10.1-.35,14.51-.35,1.57-4.67,2.24-7.36,3.4l.89,10Zm181.39-11v11h33.68c1.75-5.49,1.65-10-4.85-12a4,4,0,0,1-2.07-3c-.23-4.41-.1-8.85-.1-14.53,1.93,2.22,3,3.39,4,4.64,5.94,7.46,11.81,15,17.82,22.37,1,1.18,2.48,2.61,3.79,2.66,6.48.27,13,.12,20.92.12-1.64-3.38-2.41-6.07-4-8.1-7.74-9.81-15.71-19.44-25.13-31,7.47-6.61,14.62-13.2,22.07-19.41,4-3.35,4.77-6.86,2.22-11.49h-24.76c-1.34,5-1.29,4.94,1,10.22.34.78.42,2.24-.06,2.71-5.76,5.82-11.65,11.51-17.68,17.4v-17.17c8.81-3.09,9.14-3.82,6.23-13.12H1061.8c.92,4.08.59,9.45,2.78,10.83,4.2,2.66,5,5.74,5,9.87,0,9.54-.2,19.09.09,28.62C1069.84,1696.08,1069.77,1700.48,1063.11,1700.35Zm-137.56,11c1.63-8.1,1.58-8-4.9-11.77a4.56,4.56,0,0,1-1.66-3.74c.55-4.25,2.46-7.08,7.6-6.17,2.6.46,5.35.12,8,.07,8.48-.18,8.48-.19,10.76,8.19a7,7,0,0,1,0,1.6l-7,2.43,1.21,9.38h30.48c1.47-4.08,1.54-7.56-1.56-10.88-1.52-1.63-2.26-4.06-3.11-6.23-5.23-13.38-10.34-26.8-15.58-40.17-1.82-4.64-2.74-11.09-6.21-13.21s-9.65.26-14.65.27c-2.83,0-4.06,1.17-5.1,3.65-4.32,10.32-8.86,20.56-13.31,30.83-3.32,7.66-5.76,15.9-10.27,22.79-2.92,4.46-4.24,8-2.78,13.19,8.46,0,16.81,0,25.16,0C923.67,1711.6,924.64,1711.46,925.55,1711.38Zm256.72-13.24c-10.95,3.08-16,1.33-22.25-7.22-.83-1.13-2.85-1.83-4.37-1.93-5.71-.35-6.28,3.37-6.65,8-1.25,15.89-2.69,12.59,11.44,15.05,10.67,1.86,21.73,2.06,32.05-2.66,7.55-3.45,12.32-9.15,12.77-17.74.43-8.25-4.13-13.46-11-17-6.08-3.15-12.38-5.9-18.31-9.3a18.1,18.1,0,0,1-6.11-6.22c-.53-.87.18-4,2.17-4.66,6.14-2.15,12.91-1.79,16.81,5.34,2.88,5.26,7.09,6.4,12.77,3.57.32-4.78.43-9.8,1.06-14.75.4-3.13-.53-4.9-3.58-5.28-8.57-1-17.19-2.94-25.74-2.71-12.13.32-20.88,7.58-22.86,16.92-2.39,11.23,2,19.27,14.34,25.69,4.44,2.31,9.1,4.2,13.61,6.37C1182.06,1691.37,1183.64,1694.13,1182.26,1698.15Zm-138.81-4.25c-6.2,1.23-11.73,2.53-17.32,3.4-11.29,1.75-19.94-3.31-21.08-13.9-.86-7.94.71-16.19,1.65-24.25.16-1.38,2.48-3.45,4-3.59,8.2-.77,16.68-1.61,20.86,8.12,1.91,4.44,5.82,3.78,8.92,2.62,1.57-.59,2.59-3.64,3.13-5.77.94-3.71,1.26-7.57,1.93-11.35.43-2.42,0-3.95-2.71-4.92-10.1-3.6-20.45-5.31-31.06-3.78-13.14,1.9-22.7,8.84-26.8,21.83a48.51,48.51,0,0,0,.4,30.08c2.6,8,7.51,14.36,15.32,17.64,16.1,6.76,31.26,3,46.29-4.58Z" transform="translate(-281.6 -200.79)"/><path class="cls-1" d="M1173.33,1757.92c-10.29,8.76-20.48,17.63-30.88,26.26a1440.51,1440.51,0,0,1-124,92.28c-3,2-5.12,2.35-8.39.31-55.5-34.66-107.54-73.95-156.85-116.91l-3-2.57c2-.23,3.24-.49,4.43-.49,17.92,0,35.85-.1,53.77.09a12.49,12.49,0,0,1,6.71,2.42q47.3,34.38,94.4,69c2.91,2.14,5,2.14,7.91-.05q45.46-34.35,91.15-68.4a14.76,14.76,0,0,1,8-3c18.73-.25,37.47-.13,56.2-.13Z" transform="translate(-281.6 -200.79)"/><path class="cls-1" d="M1014.17,1150.36c12.79-.08,21.74,6,29.21,14.2,18.63,20.35,29.15,44.58,32.4,71.88,1.86,15.67-8.44,20.18-21,16.79-4.84-1.31-9.32-4.38-13.62-7.17-5.32-3.45-10.21-7.56-15.44-11.17-7.46-5.15-15.1-5-22.4.26-5.15,3.71-9.92,7.94-15,11.76a93.4,93.4,0,0,1-9.58,6.35c-8.29,4.78-22.8.79-22.14-12.55a129.72,129.72,0,0,1,4.82-29.46c5.4-18.64,14.09-35.76,28.31-49.47C996.8,1155,1004.81,1150.07,1014.17,1150.36Z" transform="translate(-281.6 -200.79)"/><path class="cls-1" d="M1135.43,1391.89H1106c0-6.6-.15-13.07.06-19.51.11-3.4-.67-5.6-3.7-7.81a30,30,0,0,1-9.31-37.15,30.49,30.49,0,0,1,58.11,14c-.42,9.68-4.5,17.73-12.5,23.41a6.86,6.86,0,0,0-3.34,6.57C1135.59,1378.09,1135.43,1384.75,1135.43,1391.89Z" transform="translate(-281.6 -200.79)"/><path class="cls-1" d="M1029.88,1391.87h-29.33c0-7.12.21-14.1-.13-21a8.4,8.4,0,0,0-2.87-5.56c-11.86-9.18-15.86-24.84-9.45-38.15a30.25,30.25,0,0,1,34.36-16.33,30.66,30.66,0,0,1,23.23,31.61c-.53,9.13-4.49,16.78-12,22.13-2.92,2.08-4.08,4.22-3.9,7.81C1030.12,1378.66,1029.88,1385,1029.88,1391.87Z" transform="translate(-281.6 -200.79)"/><path class="cls-1" d="M925.87,1391.9H896.69c0-6.69-.14-13.3.06-19.9a7.79,7.79,0,0,0-3.65-7.46,30,30,0,0,1,17.82-54.29c13.51,0,24.91,8,29,20.55s-.29,25.73-10.84,34.05a9.22,9.22,0,0,0-3.07,6C925.62,1377.7,925.87,1384.55,925.87,1391.9Z" transform="translate(-281.6 -200.79)"/><path class="cls-1" d="M1250.59,1683.87c1.09-6.17,2.14-12.36,3.28-18.52,1.61-8.7,3.39-17.38,4.87-26.1.43-2.55,1.41-3.42,3.94-3.16,10.27,1,20.55,2,32.19,3.07l-43.26,45.3Z" transform="translate(-281.6 -200.79)"/><path class="cls-1" d="M1041.59,1757.13l-28.61,21.1-29.54-21.1Z" transform="translate(-281.6 -200.79)"/><path class="cls-1" d="M731.55,1639.57c3-.47,5.1-.9,7.2-1.11,3-.29,6-.43,9.56-.67l5.64,24.69-.75.57Z" transform="translate(-281.6 -200.79)"/><path class="cls-1" d="M627.84,1557c0-18,0-35.2,0-52.43,0-9,.09-18.08,0-27.12,0-3,.88-4.08,4-4.25,9.4-.53,18.71-.67,27.57,3.19,11.68,5.08,16.75,14.88,18.47,26.74,2.07,14.28,0,28.34-3.38,42.2-.45,1.83-2,4.18-3.59,4.8C657.12,1555.51,642.79,1557.23,627.84,1557Z" transform="translate(-281.6 -200.79)"/><path class="cls-1" d="M841.72,1509.93a144.49,144.49,0,0,1-3.39,24.21,7.28,7.28,0,0,1-3.28,4.61c-11.18,5.19-22.94,7.55-35.1,4.59s-18.43-12-21-23.76c-2.79-12.81-2-25.56,1-38.26,1-4.18,3.1-6.51,7.51-7.48,9.38-2.06,18.76-3.69,28.3-1.83,15.8,3.09,24.66,13.25,25.9,29.4.22,2.83,0,5.69,0,8.53Z" transform="translate(-281.6 -200.79)"/><path class="cls-1" d="M1006.57,1506.9c.09,8.25,0,15.33-2.48,22.89a10.14,10.14,0,0,1-4.38,4.19c-11.82,4.55-24,6-36.3,2.24-11.14-3.37-17.46-11.62-19.93-22.57a74.56,74.56,0,0,1,.86-34.8c1-3.85,2.85-6.65,7.35-6.91,8.79-.51,17.66-2.29,26.34-1.59,17.42,1.4,27.57,12.92,28.52,30.52.11,2,0,4,0,6Z" transform="translate(-281.6 -200.79)"/><path class="cls-1" d="M932.9,1660.24l5.72,17.34H925.53l6.27-17.5Z" transform="translate(-281.6 -200.79)"/></svg>